<?xml version="1.0" encoding="UTF-8"?>
<svg version="1.1" xmlns="http://www.w3.org/2000/svg" width="429" height="402">
<path d="M0 0 C141.57 0 283.14 0 429 0 C429 132.66 429 265.32 429 402 C287.43 402 145.86 402 0 402 C0 269.34 0 136.68 0 0 Z " fill="#FEFEFE" transform="translate(0,0)"/>
<path d="M0 0 C7.48632474 4.17065445 12.79767366 9.77376354 16.109375 17.66796875 C16.52832031 18.65216797 16.94726562 19.63636719 17.37890625 20.65039062 C17.80816406 21.67326172 18.23742187 22.69613281 18.6796875 23.75 C21.41140511 30.25349285 24.19900395 36.57340634 27.74462891 42.67944336 C29.35274502 45.53605311 30.5521882 48.53562668 31.8046875 51.5625 C32.63130507 53.41967039 33.46519297 55.27361473 34.3046875 57.125 C34.94470703 58.53652344 34.94470703 58.53652344 35.59765625 59.9765625 C36.54761196 62.01174269 37.56964724 64.01328571 38.6171875 66 C39.8046875 68.5625 39.8046875 68.5625 39.8046875 72.5625 C38.6909375 72.954375 37.5771875 73.34625 36.4296875 73.75 C33.36577175 74.8992582 30.47227984 76.19297812 27.56640625 77.6953125 C20.87672854 81.07411852 14.0519797 84.14804958 7.22583008 87.23852539 C4.97826757 88.25630345 2.73221133 89.27735053 0.48632812 90.29882812 C-0.95564233 90.95331634 -2.39769664 91.60761988 -3.83984375 92.26171875 C-4.5045015 92.5638176 -5.16915924 92.86591644 -5.85395813 93.1771698 C-9.27115459 94.72257014 -12.69991401 96.20273687 -16.1953125 97.5625 C-16.4312915 97.06024902 -16.66727051 96.55799805 -16.91040039 96.04052734 C-20.85739414 87.64922054 -24.80572394 79.26715249 -29.0078125 71 C-31.3107955 66.44673383 -33.28507268 61.89828406 -35.09375 57.1328125 C-36.93830619 52.82884805 -39.29149757 48.80215806 -41.609375 44.73828125 C-45.69813135 36.55069773 -46.58515658 27.74642652 -44.578125 18.81640625 C-41.55470101 10.24111963 -35.98225009 3.68907477 -27.8828125 -0.4375 C-18.06795743 -4.87498549 -9.80260564 -4.48119115 0 0 Z " fill="#718DEE" transform="translate(199.1953125,50.4375)"/>
<path d="M0 0 C10.52754376 5.12443674 20.84338784 10.58517611 31.11523438 16.20410156 C37.0161621 19.42091372 42.95378748 22.50426102 49 25.4375 C58.90299317 30.30009966 66.22064199 35.41959527 70.8125 45.6875 C73.80985584 54.67956751 72.35185314 62.9577133 68.40625 71.375 C64.5671683 78.54128584 59.23619172 82.38778722 52 86 C43.32444917 88.48773605 32.55609783 88.9652099 24.49072266 84.5390625 C22.58957581 83.37767953 20.70938516 82.18773989 18.83203125 80.98828125 C13.0568587 77.30061293 6.94569865 74.24876638 0.85025024 71.134552 C-1.09325284 70.141226 -3.0339672 69.14265675 -4.97387695 68.14233398 C-10.30090283 65.3976965 -15.63623182 62.67232211 -21 60 C-21 59.34 -21 58.68 -21 58 C-21.78375 57.87625 -22.5675 57.7525 -23.375 57.625 C-26 57 -26 57 -28 55 C-27.61453433 51.10052176 -25.44463744 47.63157605 -23.6875 44.1875 C-23.34211182 43.50461914 -22.99672363 42.82173828 -22.64086914 42.11816406 C-21.43412859 39.74186177 -20.21822297 37.37043609 -19 35 C-18.52498047 34.07461426 -18.04996094 33.14922852 -17.56054688 32.19580078 C-6.31553691 10.34057979 -6.31553691 10.34057979 0 0 Z " fill="#718DEE" transform="translate(247,128)"/>
<path d="M0 0 C13.17843031 -0.48662563 27.77212491 -0.25828939 40.04150391 5.078125 C41.27900391 5.366875 42.51650391 5.655625 43.79150391 5.953125 C56.77577246 9.15110225 70.21491947 17.17029695 80.34228516 25.765625 C82.11912605 27.28714261 82.11912605 27.28714261 85.04150391 28.078125 C86.23730759 29.20559704 87.42318182 30.34568604 88.55322266 31.5390625 C89.56081431 32.58103392 90.60751149 33.58632183 91.68603516 34.5546875 C112.53509086 53.7797115 126.53036267 84.03278538 128.23339844 112.25854492 C128.30822679 115.49276518 128.3193851 118.71818503 128.29150391 121.953125 C128.28473633 123.09354248 128.27796875 124.23395996 128.27099609 125.40893555 C127.86042051 158.87800646 113.59303105 189.23689379 89.92285156 212.54614258 C75.49106175 226.35569065 57.9375549 235.1176524 39.04150391 241.078125 C38.35491699 241.3040332 37.66833008 241.52994141 36.9609375 241.76269531 C16.2708174 248.33467296 -12.70104966 248.07074287 -32.95849609 240.078125 C-33.61849609 239.418125 -34.27849609 238.758125 -34.95849609 238.078125 C-33.16646743 238.36755918 -31.37489574 238.65982279 -29.58349609 238.953125 C-28.58576172 239.11554688 -27.58802734 239.27796875 -26.56005859 239.4453125 C-24.645556 239.78170016 -22.73148465 240.13207816 -20.84033203 240.58154297 C-13.23867064 242.33323016 -5.73303814 242.47946708 2.04150391 242.453125 C2.72847351 242.45158417 3.41544312 242.45004333 4.12322998 242.44845581 C35.90481434 242.27890845 63.4689635 229.1370101 86.29150391 207.140625 C90.84195257 202.48217518 94.54424337 197.55890644 98.04150391 192.078125 C98.51845703 191.36914062 98.99541016 190.66015625 99.48681641 189.9296875 C116.27075512 163.79076655 122.20788657 132.11267565 115.91650391 101.703125 C109.24491751 71.39808783 91.8541804 46.11519692 66.26806641 28.48828125 C64.23948132 27.20351069 62.21073139 26.10330785 60.04150391 25.078125 C60.04150391 24.418125 60.04150391 23.758125 60.04150391 23.078125 C59.40341797 22.99175781 58.76533203 22.90539062 58.10791016 22.81640625 C54.7030904 21.9966471 51.71853444 20.73252392 48.51074219 19.34765625 C32.19633935 12.37509758 17.28755472 9.76212871 -0.45849609 9.640625 C-1.71065918 9.6303125 -2.96282227 9.62 -4.25292969 9.609375 C-12.25144751 9.68590567 -19.30096769 10.82111795 -26.95849609 13.078125 C-28.42388052 13.46125744 -29.8899577 13.84175701 -31.35693359 14.21875 C-44.36406454 17.77847879 -56.04733199 23.00986971 -66.95849609 31.078125 C-68.12058594 31.93470703 -68.12058594 31.93470703 -69.30615234 32.80859375 C-86.26462195 45.84323362 -99.04093025 62.13387686 -106.95849609 82.078125 C-107.40708984 83.12484375 -107.85568359 84.1715625 -108.31787109 85.25 C-114.21436418 100.02591797 -115.25613202 116.31126254 -115.95849609 132.078125 C-116.28849609 132.078125 -116.61849609 132.078125 -116.95849609 132.078125 C-117.85394946 98.74736083 -110.24349901 67.16186056 -87.01708984 41.97265625 C-85.36529583 40.2994567 -83.67650497 38.68276273 -81.95849609 37.078125 C-81.17474609 36.27375 -80.39099609 35.469375 -79.58349609 34.640625 C-58.07223628 13.64153804 -30.13674097 1.20216369 0 0 Z " fill="#6178CA" transform="translate(215.95849609375,22.921875)"/>
<path d="M0 0 C0.721875 0.00257813 1.44375 0.00515625 2.1875 0.0078125 C2.909375 0.00523437 3.63125 0.00265625 4.375 0 C6.1875 0.1328125 6.1875 0.1328125 7.1875 1.1328125 C7.31206551 2.70665453 7.36813574 4.28598828 7.39624023 5.86450195 C7.42517616 7.37661003 7.42517616 7.37661003 7.45469666 8.91926575 C7.51217987 13.53883557 7.56171589 18.15824458 7.5925293 22.77807617 C7.61413015 25.21767311 7.64825707 27.65719212 7.69506836 30.09643555 C7.76184175 33.60500875 7.78949281 37.111976 7.80859375 40.62109375 C7.83642441 41.7128743 7.86425507 42.80465485 7.89292908 43.92951965 C7.88513231 46.78892422 7.82467625 49.34520522 7.1875 52.1328125 C0.58413319 58.3067012 -9.06617464 57.72598522 -17.65625 57.5390625 C-23.25023232 57.18755553 -26.94694801 55.16093443 -30.8125 51.1328125 C-35.64227654 45.59623939 -35.46463325 39.93491443 -35.265625 32.7421875 C-34.45920381 26.3186256 -31.80325625 22.93838212 -27.125 18.6953125 C-23.16685629 16.02089108 -20.16657805 15.9497611 -15.5 15.9453125 C-14.18386719 15.93113281 -12.86773437 15.91695313 -11.51171875 15.90234375 C-8.09124633 16.11544604 -5.85983659 16.64156268 -2.8125 18.1328125 C-2.82410156 16.91722656 -2.83570313 15.70164062 -2.84765625 14.44921875 C-2.85703278 12.86458486 -2.86613313 11.27994932 -2.875 9.6953125 C-2.88337891 8.89287109 -2.89175781 8.09042969 -2.90039062 7.26367188 C-2.9090143 5.21986029 -2.8647815 3.17597348 -2.8125 1.1328125 C-1.8125 0.1328125 -1.8125 0.1328125 0 0 Z " fill="#4F65B2" transform="translate(142.8125,314.8671875)"/>
<path d="M0 0 C3.5 0.25 3.5 0.25 5.5 2.25 C6.3515625 4.30859375 6.3515625 4.30859375 7.125 6.6875 C7.51558594 7.86119141 7.51558594 7.86119141 7.9140625 9.05859375 C8.5 11.25 8.5 11.25 8.5 14.25 C9.16 14.25 9.82 14.25 10.5 14.25 C10.79350342 14.95962891 11.08700684 15.66925781 11.3894043 16.40039062 C13.68789318 21.93943841 16.01469214 27.46412046 18.39453125 32.96875 C18.87470703 34.08507812 19.35488281 35.20140625 19.84960938 36.3515625 C20.8392745 38.65065105 21.83421803 40.94747347 22.83398438 43.2421875 C23.54458008 44.90121094 23.54458008 44.90121094 24.26953125 46.59375 C24.69854736 47.58568359 25.12756348 48.57761719 25.56958008 49.59960938 C26.5 52.25 26.5 52.25 26.5 56.25 C23.2 56.25 19.9 56.25 16.5 56.25 C14.025 50.31 14.025 50.31 11.5 44.25 C3.91 44.25 -3.68 44.25 -11.5 44.25 C-12.139375 46.044375 -12.77875 47.83875 -13.4375 49.6875 C-15.375 55.125 -15.375 55.125 -16.5 56.25 C-18.18608966 56.32205511 -19.87500659 56.33386068 -21.5625 56.3125 C-22.48160156 56.30347656 -23.40070312 56.29445313 -24.34765625 56.28515625 C-25.05792969 56.27355469 -25.76820312 56.26195312 -26.5 56.25 C-25.99625134 49.80731973 -23.72064862 44.65713422 -21.0625 38.8125 C-20.15563068 36.77950184 -19.25074962 34.74561582 -18.34765625 32.7109375 C-17.64600342 31.1326416 -17.64600342 31.1326416 -16.93017578 29.52246094 C-14.07778002 22.99574315 -11.40159867 16.39359598 -8.72485352 9.79321289 C-8.33096436 8.83406982 -7.9370752 7.87492676 -7.53125 6.88671875 C-7.18642578 6.03811279 -6.84160156 5.18950684 -6.48632812 4.31518555 C-4.78819706 0.75961855 -4.00536727 0.28609766 0 0 Z " fill="#5066B3" transform="translate(78.5,314.75)"/>
<path d="M0 0 C4.70299058 3.34635868 6.84410926 5.68893705 8.25 11.3125 C8.25 14.6125 8.25 17.9125 8.25 21.3125 C-2.31 21.3125 -12.87 21.3125 -23.75 21.3125 C-21.21046526 28.28603368 -21.21046526 28.28603368 -15.75 31.3125 C-12.79911797 31.74661476 -12.79911797 31.74661476 -9.75 31.625 C-8.739375 31.62113281 -7.72875 31.61726563 -6.6875 31.61328125 C-3.68540761 31.30588615 -1.50974163 30.48259316 1.25 29.3125 C2.24 29.3125 3.23 29.3125 4.25 29.3125 C4.745 32.2825 4.745 32.2825 5.25 35.3125 C-2.60136623 40.19307901 -11.00788039 40.40941236 -20.0625 38.75 C-25.84061831 36.4975132 -30.25633002 33.05089497 -33.25 27.5625 C-34.54838011 19.1230293 -34.57029394 11.6534981 -29.75 4.3125 C-22.88647485 -3.17824024 -9.12967857 -4.29631933 0 0 Z " fill="#4D62AD" transform="translate(368.75,332.6875)"/>
<path d="M0 0 C2.97 0 5.94 0 9 0 C9 6.6 9 13.2 9 20 C11.31 18.68 13.62 17.36 16 16 C21.76670886 15.13340066 28.67209376 14.53988133 33.75 17.875 C37.84956341 21.74680988 38.89308889 23.43836936 39.12939453 29.1003418 C39.13108643 30.88178589 39.13108643 30.88178589 39.1328125 32.69921875 C39.13410156 33.99021484 39.13539063 35.28121094 39.13671875 36.61132812 C39.13462402 37.2797876 39.1325293 37.94824707 39.13037109 38.63696289 C39.12499085 40.69099215 39.13034208 42.74480539 39.13671875 44.79882812 C39.13542969 46.08595703 39.13414062 47.37308594 39.1328125 48.69921875 C39.13168457 49.88346436 39.13055664 51.06770996 39.12939453 52.2878418 C39 55 39 55 38 56 C36.48071962 56.07179964 34.95832518 56.08392007 33.4375 56.0625 C32.61121094 56.05347656 31.78492188 56.04445313 30.93359375 56.03515625 C30.29550781 56.02355469 29.65742188 56.01195312 29 56 C27.60718791 53.21437582 27.83661384 50.86308605 27.7890625 47.75 C27.76070312 46.5021875 27.73234375 45.254375 27.703125 43.96875 C27.65104447 41.32305887 27.60677248 38.67720249 27.5703125 36.03125 C27.539375 34.7834375 27.5084375 33.535625 27.4765625 32.25 C27.45674316 31.10015625 27.43692383 29.9503125 27.41650391 28.765625 C27.27905762 27.85296875 27.14161133 26.9403125 27 26 C23.27420911 23.51613941 21.41288598 23.6195788 17 24 C14.68720389 25.15639806 12.82590172 26.17409828 11 28 C10.85391707 29.98642661 10.77262445 31.97768786 10.71875 33.96875 C10.68136719 35.17917969 10.64398438 36.38960938 10.60546875 37.63671875 C10.57066406 38.91160156 10.53585938 40.18648438 10.5 41.5 C10.4314615 44.01054001 10.35877724 46.52097149 10.28125 49.03125 C10.23581055 50.71057617 10.23581055 50.71057617 10.18945312 52.42382812 C10 55 10 55 9 56 C7.50261876 56.0979057 6.00057108 56.12974864 4.5 56.125 C3.6853125 56.12757813 2.870625 56.13015625 2.03125 56.1328125 C0 56 0 56 -1 55 C-1.0987517 53.31744765 -1.12798904 51.63075972 -1.12939453 49.9453125 C-1.13254669 48.86749512 -1.13569885 47.78967773 -1.13894653 46.67919922 C-1.1369223 45.50631348 -1.13489807 44.33342773 -1.1328125 43.125 C-1.13376923 41.9302002 -1.13472595 40.73540039 -1.13571167 39.50439453 C-1.13639371 36.9723302 -1.13453778 34.44026412 -1.13037109 31.90820312 C-1.12502321 28.0168874 -1.13031533 24.12568711 -1.13671875 20.234375 C-1.13605797 17.78124974 -1.13477682 15.32812456 -1.1328125 12.875 C-1.13483673 11.70211426 -1.13686096 10.52922852 -1.13894653 9.32080078 C-1.13579437 8.2429834 -1.13264221 7.16516602 -1.12939453 6.0546875 C-1.12859894 5.10062012 -1.12780334 4.14655273 -1.12698364 3.16357422 C-1 1 -1 1 0 0 Z " fill="#5368B5" transform="translate(159,315)"/>
<path d="M0 0 C3.72546487 1.90645855 6.13328566 4.26657132 8 8 C8.09787095 10.31215511 8.13077623 12.62718158 8.1328125 14.94140625 C8.13376923 15.62428207 8.13472595 16.3071579 8.13571167 17.01072693 C8.13639223 18.45401095 8.1345466 19.89729803 8.13037109 21.34057617 C8.12501282 23.55719828 8.13032443 25.77361852 8.13671875 27.99023438 C8.13605811 29.39062545 8.13477723 30.7910164 8.1328125 32.19140625 C8.13168457 33.47217041 8.13055664 34.75293457 8.12939453 36.07250977 C8 39 8 39 7 40 C5.1875 40.1328125 5.1875 40.1328125 3 40.125 C2.278125 40.12757813 1.55625 40.13015625 0.8125 40.1328125 C-1 40 -1 40 -2 39 C-2.1462781 36.95229506 -2.22742886 34.89987361 -2.28125 32.84765625 C-2.31863281 31.59662109 -2.35601562 30.34558594 -2.39453125 29.05664062 C-2.44673828 27.07954102 -2.44673828 27.07954102 -2.5 25.0625 C-2.56866035 22.46993586 -2.64136736 19.8774747 -2.71875 17.28515625 C-2.74904297 16.12894775 -2.77933594 14.97273926 -2.81054688 13.78149414 C-2.81752449 11.04378484 -2.81752449 11.04378484 -4 9 C-10.17101781 7.61684083 -13.43821021 8.04884623 -19 11 C-20.79911112 12.79911112 -20.21547279 15.53779221 -20.28125 17.96875 C-20.31863281 19.17917969 -20.35601562 20.38960938 -20.39453125 21.63671875 C-20.42933594 22.91160156 -20.46414063 24.18648438 -20.5 25.5 C-20.5685385 28.01054001 -20.64122276 30.52097149 -20.71875 33.03125 C-20.76418945 34.71057617 -20.76418945 34.71057617 -20.81054688 36.42382812 C-21 39 -21 39 -22 40 C-23.49738124 40.0979057 -24.99942892 40.12974864 -26.5 40.125 C-27.3146875 40.12757813 -28.129375 40.13015625 -28.96875 40.1328125 C-31 40 -31 40 -32 39 C-32.08861992 36.1883662 -32.11522355 33.40141745 -32.09765625 30.58984375 C-32.0962413 29.74780899 -32.09482635 28.90577423 -32.09336853 28.03822327 C-32.08775263 25.33794665 -32.07519748 22.63775172 -32.0625 19.9375 C-32.05748705 18.11132932 -32.05292379 16.28515734 -32.04882812 14.45898438 C-32.03777804 9.97262458 -32.02050279 5.48632616 -32 1 C-30.54207116 0.94600264 -29.08357288 0.90720823 -27.625 0.875 C-26.81289063 0.85179687 -26.00078125 0.82859375 -25.1640625 0.8046875 C-23 1 -23 1 -21 3 C-20.16339844 2.51660156 -19.32679688 2.03320312 -18.46484375 1.53515625 C-12.4966756 -1.10913922 -6.39666451 -0.88397867 0 0 Z " fill="#4F65B0" transform="translate(321,331)"/>
<path d="M0 0 C0.77214844 -0.00708984 1.54429687 -0.01417969 2.33984375 -0.02148438 C7.24746338 0.03285894 10.57540005 0.84812431 14.875 3.4375 C14.545 5.4175 14.215 7.3975 13.875 9.4375 C11.26466677 10.40429008 10.19614683 10.56999351 7.57421875 9.48828125 C3.08200335 7.73950275 -1.38487606 7.71865237 -6.125 8.4375 C-9.02183868 10.6390974 -10.51797231 12.22344462 -12.125 15.4375 C-12.62760166 20.55414964 -12.96602072 24.96571374 -10.375 29.5 C-6.3302256 32.98300017 -3.69694835 33.81945696 1.78125 33.70703125 C5.14618591 33.27385853 7.81540995 31.87730708 10.875 30.4375 C11.865 30.4375 12.855 30.4375 13.875 30.4375 C15.20683742 32.63111457 15.94480864 33.87903085 15.62109375 36.46875 C14.875 38.4375 14.875 38.4375 11.875 40.1875 C4.26253805 42.65156996 -5.52551561 43.09404253 -13.0859375 40.37109375 C-17.33228688 37.78237245 -20.61534215 34.53561275 -22.52734375 29.90234375 C-24.30719463 22.561913 -24.62456986 14.92381084 -20.625 8.3125 C-15.69459494 1.27297723 -8.07733579 -0.21112766 0 0 Z " fill="#4D63AE" transform="translate(247.125,330.5625)"/>
<path d="M0 0 C8.29391667 -0.6315165 14.32568205 -0.24886481 21 5 C26.19901449 9.77485247 29.53540427 15.92468907 33 22 C33.38285156 22.64324219 33.76570313 23.28648438 34.16015625 23.94921875 C36.08636709 27.20839679 37.71839056 30.50470195 39.16015625 34.00390625 C40.17846171 36.42415783 41.27661668 38.80253683 42.375 41.1875 C44.23387155 45.27249735 46.05056574 49.37218235 47.8125 53.5 C48.23144531 54.4796875 48.65039062 55.459375 49.08203125 56.46875 C50 59 50 59 50 62 C44.375 65 44.375 65 41 65 C38.35145923 59.37607726 35.86814939 53.74658179 33.72265625 47.91015625 C31.11160283 41.07784306 27.99519139 34.61102872 24.625 28.125 C24.08617187 27.04992187 23.54734375 25.97484375 22.9921875 24.8671875 C18.4511478 16.08784409 13.64188245 10.21273499 5.0625 5.1875 C3.34362992 4.17653603 1.64489562 3.12733353 0 2 C0 1.34 0 0.68 0 0 Z " fill="#F7F9FC" transform="translate(180,57)"/>
<path d="M0 0 C17.36339787 3.98484596 48.17188653 17.60262223 58 33 C60.28267909 38.65234822 60.21705984 44.00673658 60 50 C56.87601994 47.06535207 54.32213294 44.10399353 51.8125 40.625 C44.68923702 31.41650832 34.26848048 26.91485433 24.02392578 21.98193359 C20.89270225 20.46278027 17.79282276 18.88390921 14.6875 17.3125 C8.85557792 14.39319113 2.96285975 11.64069503 -3 9 C-2.38550003 5.66177043 -1.65439171 2.97790508 0 0 Z " fill="#F8FAFC" transform="translate(249,143)"/>
<path d="M0 0 C1.40378906 -0.02900391 1.40378906 -0.02900391 2.8359375 -0.05859375 C6.67535583 0.624328 8.13018954 1.39428076 10.625 4.4375 C11.23749231 8.03933762 11.09501973 11.54758243 10.9375 15.1875 C10.91494141 16.17105469 10.89238281 17.15460938 10.86914062 18.16796875 C10.81028805 20.5926947 10.72813431 23.01431983 10.625 25.4375 C6.09855919 27.40995945 2.5176463 28.0924993 -2.375 27.4375 C-5.58324247 25.94032018 -8.10432114 24.16231464 -10.375 21.4375 C-12.12826103 16.17771691 -12.07232734 11.23062746 -10.0625 6.0625 C-7.11205707 1.47292211 -5.61491176 0.00769166 0 0 Z " fill="#F7F8FB" transform="translate(129.375,337.5625)"/>
<path d="M0 0 C0.8146875 0.00257813 1.629375 0.00515625 2.46875 0.0078125 C3.2834375 0.00523437 4.098125 0.00265625 4.9375 0 C6.96875 0.1328125 6.96875 0.1328125 7.96875 1.1328125 C8.06974488 3.86005529 8.10845529 6.56143773 8.1015625 9.2890625 C8.10251923 10.10652954 8.10347595 10.92399658 8.10446167 11.76623535 C8.10514345 13.49796628 8.10328929 15.22969974 8.09912109 16.96142578 C8.09377279 19.62147732 8.09906612 22.28136 8.10546875 24.94140625 C8.10480797 26.61979204 8.1035268 28.29817773 8.1015625 29.9765625 C8.10358673 30.77759399 8.10561096 31.57862549 8.10769653 32.40393066 C8.08370079 38.01786171 8.08370079 38.01786171 6.96875 39.1328125 C5.47136876 39.2307182 3.96932108 39.26256114 2.46875 39.2578125 C1.6540625 39.26039063 0.839375 39.26296875 0 39.265625 C-2.03125 39.1328125 -2.03125 39.1328125 -3.03125 38.1328125 C-3.13224488 35.40556971 -3.17095529 32.70418727 -3.1640625 29.9765625 C-3.16501923 29.15909546 -3.16597595 28.34162842 -3.16696167 27.49938965 C-3.16764345 25.76765872 -3.16578929 24.03592526 -3.16162109 22.30419922 C-3.15627279 19.64414768 -3.16156612 16.984265 -3.16796875 14.32421875 C-3.16730797 12.64583296 -3.1660268 10.96744727 -3.1640625 9.2890625 C-3.16608673 8.48803101 -3.16811096 7.68699951 -3.17019653 6.86169434 C-3.14174549 0.20542182 -3.14174549 0.20542182 0 0 Z " fill="#5266AF" transform="translate(209.03125,331.8671875)"/>
<path d="M0 0 C2.97 0 5.94 0 9 0 C10.81565436 1.81565436 10.12861899 4.31269962 10.13894653 6.72888184 C10.1369223 7.52991333 10.13489807 8.33094482 10.1328125 9.15625 C10.13376923 9.97371704 10.13472595 10.79118408 10.13571167 11.63342285 C10.13639345 13.36515378 10.13453929 15.09688724 10.13037109 16.82861328 C10.12502279 19.48866482 10.13031612 22.1485475 10.13671875 24.80859375 C10.13605797 26.48697954 10.1347768 28.16536523 10.1328125 29.84375 C10.13483673 30.64478149 10.13686096 31.44581299 10.13894653 32.27111816 C10.11495079 37.88504921 10.11495079 37.88504921 9 39 C6.03 39 3.06 39 0 39 C0 26.13 0 13.26 0 0 Z " fill="#4A5FAC" transform="translate(271,332)"/>
<path d="M0 0 C0.66 0.33 1.32 0.66 2 1 C0.68 2.65 -0.64 4.3 -2 6 C-1.01 6.33 -0.02 6.66 1 7 C0.52691406 7.40089844 0.05382812 7.80179688 -0.43359375 8.21484375 C-2.6465068 10.11717251 -4.82496529 12.05449156 -7 14 C-7.69738281 14.60585937 -8.39476562 15.21171875 -9.11328125 15.8359375 C-20.21031964 26.10120519 -28.45485681 40.03185449 -34 54 C-34.44859375 55.04671875 -34.8971875 56.0934375 -35.359375 57.171875 C-41.25586809 71.94779297 -42.29763593 88.23313754 -43 104 C-43.33 104 -43.66 104 -44 104 C-44.89545337 70.66923583 -37.28500291 39.08373556 -14.05859375 13.89453125 C-12.40666875 12.22119901 -10.71959821 10.60323442 -9 9 C-8.113125 8.113125 -7.22625 7.22625 -6.3125 6.3125 C-3.15625 3.15625 -3.15625 3.15625 0 0 Z " fill="#697CC3" transform="translate(143,51)"/>
<path d="M0 0 C0.99 0.495 0.99 0.495 2 1 C1.05943074 4.52110542 0.31485652 5.79009565 -2.765625 7.84375 C-11.01915832 11.76695418 -19.24295228 15.31549277 -28 18 C-29.24007812 18.39445312 -30.48015625 18.78890625 -31.7578125 19.1953125 C-52.20858668 25.03910133 -80.11196387 24.84686626 -100 17 C-100.66 16.34 -101.32 15.68 -102 15 C-100.20797133 15.28943418 -98.41639965 15.58169779 -96.625 15.875 C-95.62726563 16.03742188 -94.62953125 16.19984375 -93.6015625 16.3671875 C-91.6870599 16.70357516 -89.77298856 17.05395316 -87.88183594 17.50341797 C-80.28017455 19.25510516 -72.77454205 19.40134208 -65 19.375 C-64.3130304 19.37345917 -63.62606079 19.37191833 -62.91827393 19.37033081 C-40.80257035 19.25234867 -20.14317848 13.49751615 -1.64453125 0.8984375 C-0.83048828 0.45371094 -0.83048828 0.45371094 0 0 Z " fill="#5E6A90" transform="translate(283,246)"/>
<path d="M0 0 C2.859375 0.4140625 2.859375 0.4140625 6.046875 1.9765625 C7.859375 4.4140625 7.859375 4.4140625 8.859375 11.4140625 C1.269375 11.4140625 -6.320625 11.4140625 -14.140625 11.4140625 C-12.48104261 1.45656815 -9.78132009 -0.45328069 0 0 Z " fill="#F2F5F9" transform="translate(359.140625,336.5859375)"/>
<path d="M0 0 C2.57205083 3.02282263 4.50122982 5.5761926 5.6875 9.375 C5.91824219 10.08398438 6.14898437 10.79296875 6.38671875 11.5234375 C7.156948 14.63379002 7.54684338 17.82790369 8 21 C3.05 21 -1.9 21 -7 21 C-5.875 13.125 -5.875 13.125 -4.58984375 10.25390625 C-4.32236328 9.64482422 -4.05488281 9.03574219 -3.77929688 8.40820312 C-3.50150391 7.79912109 -3.22371094 7.19003906 -2.9375 6.5625 C-2.65583984 5.92634766 -2.37417969 5.29019531 -2.08398438 4.63476562 C-1.39710188 3.08636949 -0.69965593 1.54266643 0 0 Z " fill="#F6F8FB" transform="translate(78,329)"/>
<path d="M0 0 C3.5625 0.25 3.5625 0.25 6.5625 2.25 C6.9375 5.25 6.9375 5.25 6.5625 8.25 C2.88903229 10.69897847 0.89893601 10.56537716 -3.4375 10.25 C-5.4375 8.25 -5.4375 8.25 -5.6875 5.25 C-5.31887022 0.82644265 -4.38412801 0.31884567 0 0 Z " fill="#6C83D4" transform="translate(275.4375,314.75)"/>
<path d="M0 0 C0.66 0.33 1.32 0.66 2 1 C0.68 2.65 -0.64 4.3 -2 6 C-1.01 6.33 -0.02 6.66 1 7 C0.50371094 7.42410156 0.00742188 7.84820312 -0.50390625 8.28515625 C-4.71124935 11.91768208 -8.68070771 15.63354397 -12.45703125 19.71484375 C-14 21 -14 21 -17 21 C-17.99 21.66 -18.98 22.32 -20 23 C-18.6350975 18.8541999 -16.83070371 16.50057094 -13.6875 13.5 C-12.883125 12.72269531 -12.07875 11.94539063 -11.25 11.14453125 C-10.5075 10.43683594 -9.765 9.72914062 -9 9 C-7.6078125 7.6078125 -7.6078125 7.6078125 -6.1875 6.1875 C-4.125 4.125 -2.0625 2.0625 0 0 Z " fill="#6E84D2" transform="translate(143,51)"/>
<path d="M0 0 C2 2 2 2 2.25 5 C2 8 2 8 0 10 C-2.71454956 10.32752234 -5.25230759 10.1308425 -8 10 C-9 9 -9 9 -9.09765625 7.15234375 C-9.06510417 5.1015625 -9.03255208 3.05078125 -9 1 C-5.98675805 -0.50662097 -3.31713623 -0.17770373 0 0 Z " fill="#6A82D3" transform="translate(215,315)"/>
<path d="M0 0 C0.66 0.99 1.32 1.98 2 3 C1.31322684 6.12169618 0.36709048 8.99496813 -0.72729492 11.99121094 C-2.740959 17.65427401 -3.84336546 23.17561605 -4.625 29.125 C-4.74979736 30.03209717 -4.87459473 30.93919434 -5.00317383 31.8737793 C-6.02491047 39.56833081 -6.65459914 47.24634626 -7 55 C-7.33 55 -7.66 55 -8 55 C-8.52073157 35.6172139 -6.88844377 18.21489677 0 0 Z " fill="#828FBB" transform="translate(107,100)"/>
<path d="M0 0 C0.66 0.33 1.32 0.66 2 1 C1.05619488 4.22737959 0.46460099 5.69153541 -2.3828125 7.58203125 C-3.28773438 7.98808594 -4.19265625 8.39414063 -5.125 8.8125 C-6.49011719 9.44091797 -6.49011719 9.44091797 -7.8828125 10.08203125 C-8.58148438 10.38496094 -9.28015625 10.68789063 -10 11 C-10.66 10.34 -11.32 9.68 -12 9 C-12 8.34 -12 7.68 -12 7 C-9.4453125 5.23828125 -9.4453125 5.23828125 -6.125 3.3125 C-5.03445313 2.66925781 -3.94390625 2.02601563 -2.8203125 1.36328125 C-1.88960938 0.91339844 -0.95890625 0.46351563 0 0 Z " fill="#37477E" transform="translate(283,246)"/>
<path d="M0 0 C0.66 0.99 1.32 1.98 2 3 C1.45989692 5.45501401 0.82268029 7.63985164 0 10 C-0.26683594 10.81082031 -0.53367187 11.62164062 -0.80859375 12.45703125 C-1.52775315 14.64203708 -2.25926307 16.82223342 -3 19 C-3.33 19 -3.66 19 -4 19 C-4.62621031 12.11168659 -2.35806067 6.41097745 0 0 Z " fill="#7586C0" transform="translate(107,100)"/>
<path d="M0 0 C0.33 0.99 0.66 1.98 1 3 C-0.14453125 5.04296875 -0.14453125 5.04296875 -1.8125 7.1875 C-2.62654297 8.26064453 -2.62654297 8.26064453 -3.45703125 9.35546875 C-3.96621094 9.89816406 -4.47539063 10.44085938 -5 11 C-5.66 11 -6.32 11 -7 11 C-7.4375 8.875 -7.4375 8.875 -7 6 C-4.87310854 3.723853 -2.4976567 1.8541278 0 0 Z " fill="#657BCC" transform="translate(127,70)"/>
<path d="M0 0 C0.33 0.66 0.66 1.32 1 2 C-1.64 2.99 -4.28 3.98 -7 5 C-7 4.34 -7 3.68 -7 3 C-8.98 3.33 -10.96 3.66 -13 4 C-10.96180154 1.96180154 -9.70582202 1.32158941 -7.0625 0.3125 C-6.37285156 0.04050781 -5.68320312 -0.23148438 -4.97265625 -0.51171875 C-3 -1 -3 -1 0 0 Z " fill="#475485" transform="translate(272,255)"/>
<path d="M0 0 C-0.33 0.66 -0.66 1.32 -1 2 C-5.57462259 3.19811544 -9.38032292 2.83154187 -14 2 C-14 1.67 -14 1.34 -14 1 C-12.41913952 0.63495397 -10.83516093 0.28339494 -9.25 -0.0625 C-8.36828125 -0.25972656 -7.4865625 -0.45695312 -6.578125 -0.66015625 C-4.01320972 -0.99825872 -2.42908361 -0.81158635 0 0 Z " fill="#4F5B87" transform="translate(251,263)"/>
<path d="M0 0 C0 0.66 0 1.32 0 2 C-1.6796875 3.2890625 -1.6796875 3.2890625 -3.875 4.625 C-4.95394531 5.29402344 -4.95394531 5.29402344 -6.0546875 5.9765625 C-8 7 -8 7 -10 7 C-10 6.34 -10 5.68 -10 5 C-8.3203125 3.7109375 -8.3203125 3.7109375 -6.125 2.375 C-5.40570313 1.92898437 -4.68640625 1.48296875 -3.9453125 1.0234375 C-2 0 -2 0 0 0 Z " fill="#434343" transform="translate(127,187)"/>
<path d="M0 0 C2.0625 2.25 2.0625 2.25 4 5 C3.75 7.3125 3.75 7.3125 3 9 C2.67 8.01 2.34 7.02 2 6 C0.68 6 -0.64 6 -2 6 C-1.34 4.02 -0.68 2.04 0 0 Z " fill="#C7D0EA" transform="translate(78,329)"/>
<path d="M0 0 C0 0.66 0 1.32 0 2 C0.66 2.33 1.32 2.66 2 3 C-1.47325181 4.1577506 -4.36067448 4.06866652 -8 4 C-2.7826087 0 -2.7826087 0 0 0 Z " fill="#3A497C" transform="translate(256,260)"/>
<path d="M0 0 C0.66 0.99 1.32 1.98 2 3 C1.125 5.6875 1.125 5.6875 0 8 C-0.33 7.34 -0.66 6.68 -1 6 C-1.66 5.67 -2.32 5.34 -3 5 C-2.01 3.35 -1.02 1.7 0 0 Z " fill="#7187CA" transform="translate(119,78)"/>
</svg>
